<svg width="32" height="34" fill="none" xmlns="http://www.w3.org/2000/svg"><path d="M.769.675c-.397.398-.63 1.014-.63 1.797v28.383c0 .796.233 1.411.63 1.796l.095.09 16.933-15.885v-.385L.864.585.77.675z" fill="url(#paint0_linear_479:2329)"/><path d="M23.444 22.155l-5.645-5.3v-.384l5.645-5.3.123.065 6.683 3.567c1.913 1.013 1.913 2.681 0 3.708l-6.683 3.567-.123.077z" fill="url(#paint1_linear_479:2329)"/><path d="M23.566 22.091l-5.768-5.427L.77 32.652c.628.628 1.667.705 2.842.077L23.566 22.09z" fill="url(#paint2_linear_479:2329)"/><path d="M23.565 11.248L3.598.598C2.423-.03 1.384.047.756.675l17.042 15.988 5.767-5.415z" fill="url(#paint3_linear_479:2329)"/><path opacity=".2" d="M23.441 21.963L3.598 32.549c-1.107.59-2.105.552-2.734.013l-.095.09.095.09c.643.538 1.627.577 2.734-.014l19.966-10.65-.123-.115z" fill="#000"/><path opacity=".12" d="M.767 32.472C.371 32.074.14 31.458.14 30.675v.193c0 .795.232 1.411.628 1.796l.096-.09-.096-.102zm29.482-14.14l-6.82 3.63.123.116 6.683-3.567c.957-.513 1.435-1.18 1.435-1.847-.068.603-.547 1.206-1.421 1.668z" fill="#000"/><path opacity=".25" d="M3.598.779l26.65 14.217c.861.462 1.353 1.053 1.435 1.668 0-.667-.478-1.347-1.435-1.847L3.598.599C1.685-.414.127.433.127 2.486v.192C.127.612 1.699-.235 3.598.78z" fill="#fff"/><defs><linearGradient id="paint0_linear_479:2329" x1="16.293" y1="2.176" x2="-5.198" y2="25.067" gradientUnits="userSpaceOnUse"><stop stop-color="#00A0FF"/><stop offset=".007" stop-color="#00A1FF"/><stop offset=".26" stop-color="#00BEFF"/><stop offset=".512" stop-color="#00D2FF"/><stop offset=".76" stop-color="#00DFFF"/><stop offset="1" stop-color="#00E3FF"/></linearGradient><linearGradient id="paint1_linear_479:2329" x1="32.743" y1="16.665" x2="-.327" y2="16.665" gradientUnits="userSpaceOnUse"><stop stop-color="#FFE000"/><stop offset=".409" stop-color="#FFBD00"/><stop offset=".775" stop-color="orange"/><stop offset="1" stop-color="#FF9C00"/></linearGradient><linearGradient id="paint2_linear_479:2329" x1="20.432" y1="19.61" x2="-8.713" y2="50.651" gradientUnits="userSpaceOnUse"><stop stop-color="#FF3A44"/><stop offset="1" stop-color="#C31162"/></linearGradient><linearGradient id="paint3_linear_479:2329" x1="-3.526" y1="-8.773" x2="9.488" y2="5.088" gradientUnits="userSpaceOnUse"><stop stop-color="#32A071"/><stop offset=".069" stop-color="#2DA771"/><stop offset=".476" stop-color="#15CF74"/><stop offset=".801" stop-color="#06E775"/><stop offset="1" stop-color="#00F076"/></linearGradient></defs></svg>