<svg width="25" height="29" fill="none" xmlns="http://www.w3.org/2000/svg"><path d="M20.853 15.048c-.041-3.528 3.075-5.248 3.225-5.325-1.763-2.412-4.496-2.746-5.453-2.771-2.296-.231-4.524 1.283-5.685 1.283-1.19 0-2.993-1.27-4.934-1.232a7.327 7.327 0 00-6.11 3.503c-2.637 4.299-.669 10.612 1.86 14.089 1.27 1.707 2.747 3.606 4.687 3.529 1.9-.077 2.61-1.13 4.893-1.13 2.269 0 2.925 1.13 4.906 1.091 2.037-.026 3.321-1.707 4.538-3.426 1.462-1.95 2.05-3.875 2.077-3.965-.068-.013-3.963-1.411-4.004-5.646zm-3.731-10.38c1.025-1.194 1.722-2.823 1.517-4.479-1.476.065-3.321.963-4.387 2.13-.943 1.027-1.777 2.72-1.558 4.312 1.654.115 3.362-.783 4.428-1.963z" fill="#fff"/></svg>